<?xml version="1.0" encoding="UTF-8"?>
<svg xmlns="http://www.w3.org/2000/svg" xmlns:xlink="http://www.w3.org/1999/xlink" width="317.19pt" height="202.52pt" viewBox="0 0 317.19 202.52">
<defs>
<g>
<g id="glyph-0-0">
<path d="M 3.328125 -3.015625 C 3.390625 -3.265625 3.625 -4.1875 4.3125 -4.1875 C 4.359375 -4.1875 4.609375 -4.1875 4.8125 -4.0625 C 4.53125 -4 4.34375 -3.765625 4.34375 -3.515625 C 4.34375 -3.359375 4.453125 -3.171875 4.71875 -3.171875 C 4.9375 -3.171875 5.25 -3.34375 5.25 -3.75 C 5.25 -4.265625 4.671875 -4.40625 4.328125 -4.40625 C 3.75 -4.40625 3.40625 -3.875 3.28125 -3.65625 C 3.03125 -4.3125 2.5 -4.40625 2.203125 -4.40625 C 1.171875 -4.40625 0.59375 -3.125 0.59375 -2.875 C 0.59375 -2.765625 0.703125 -2.765625 0.71875 -2.765625 C 0.796875 -2.765625 0.828125 -2.796875 0.84375 -2.875 C 1.1875 -3.9375 1.84375 -4.1875 2.1875 -4.1875 C 2.375 -4.1875 2.71875 -4.09375 2.71875 -3.515625 C 2.71875 -3.203125 2.546875 -2.546875 2.1875 -1.140625 C 2.03125 -0.53125 1.671875 -0.109375 1.234375 -0.109375 C 1.171875 -0.109375 0.953125 -0.109375 0.734375 -0.234375 C 0.984375 -0.296875 1.203125 -0.5 1.203125 -0.78125 C 1.203125 -1.046875 0.984375 -1.125 0.84375 -1.125 C 0.53125 -1.125 0.296875 -0.875 0.296875 -0.546875 C 0.296875 -0.09375 0.78125 0.109375 1.21875 0.109375 C 1.890625 0.109375 2.25 -0.59375 2.265625 -0.640625 C 2.390625 -0.28125 2.75 0.109375 3.34375 0.109375 C 4.375 0.109375 4.9375 -1.171875 4.9375 -1.421875 C 4.9375 -1.53125 4.859375 -1.53125 4.828125 -1.53125 C 4.734375 -1.53125 4.71875 -1.484375 4.6875 -1.421875 C 4.359375 -0.34375 3.6875 -0.109375 3.375 -0.109375 C 2.984375 -0.109375 2.828125 -0.421875 2.828125 -0.765625 C 2.828125 -0.984375 2.875 -1.203125 2.984375 -1.640625 Z M 3.328125 -3.015625 "/>
</g>
<g id="glyph-0-1">
<path d="M 4.84375 -3.796875 C 4.890625 -3.9375 4.890625 -3.953125 4.890625 -4.03125 C 4.890625 -4.203125 4.75 -4.296875 4.59375 -4.296875 C 4.5 -4.296875 4.34375 -4.234375 4.25 -4.09375 C 4.234375 -4.03125 4.140625 -3.734375 4.109375 -3.546875 C 4.03125 -3.296875 3.96875 -3.015625 3.90625 -2.75 L 3.453125 -0.953125 C 3.421875 -0.8125 2.984375 -0.109375 2.328125 -0.109375 C 1.828125 -0.109375 1.71875 -0.546875 1.71875 -0.921875 C 1.71875 -1.375 1.890625 -2 2.21875 -2.875 C 2.375 -3.28125 2.421875 -3.390625 2.421875 -3.59375 C 2.421875 -4.03125 2.109375 -4.40625 1.609375 -4.40625 C 0.65625 -4.40625 0.296875 -2.953125 0.296875 -2.875 C 0.296875 -2.765625 0.390625 -2.765625 0.40625 -2.765625 C 0.515625 -2.765625 0.515625 -2.796875 0.5625 -2.953125 C 0.84375 -3.890625 1.234375 -4.1875 1.578125 -4.1875 C 1.65625 -4.1875 1.828125 -4.1875 1.828125 -3.875 C 1.828125 -3.625 1.71875 -3.359375 1.65625 -3.171875 C 1.25 -2.109375 1.078125 -1.546875 1.078125 -1.078125 C 1.078125 -0.1875 1.703125 0.109375 2.296875 0.109375 C 2.6875 0.109375 3.015625 -0.0625 3.296875 -0.34375 C 3.171875 0.171875 3.046875 0.671875 2.65625 1.203125 C 2.390625 1.53125 2.015625 1.828125 1.5625 1.828125 C 1.421875 1.828125 0.96875 1.796875 0.796875 1.40625 C 0.953125 1.40625 1.09375 1.40625 1.21875 1.28125 C 1.328125 1.203125 1.421875 1.0625 1.421875 0.875 C 1.421875 0.5625 1.15625 0.53125 1.0625 0.53125 C 0.828125 0.53125 0.5 0.6875 0.5 1.171875 C 0.5 1.671875 0.9375 2.046875 1.5625 2.046875 C 2.578125 2.046875 3.609375 1.140625 3.890625 0.015625 Z M 4.84375 -3.796875 "/>
</g>
<g id="glyph-0-2">
<path d="M 2.03125 -0.015625 C 2.03125 -0.671875 1.78125 -1.0625 1.390625 -1.0625 C 1.0625 -1.0625 0.859375 -0.8125 0.859375 -0.53125 C 0.859375 -0.265625 1.0625 0 1.390625 0 C 1.5 0 1.640625 -0.046875 1.734375 -0.125 C 1.765625 -0.15625 1.78125 -0.15625 1.78125 -0.15625 C 1.796875 -0.15625 1.796875 -0.15625 1.796875 -0.015625 C 1.796875 0.734375 1.453125 1.328125 1.125 1.65625 C 1.015625 1.765625 1.015625 1.78125 1.015625 1.8125 C 1.015625 1.890625 1.0625 1.921875 1.109375 1.921875 C 1.21875 1.921875 2.03125 1.15625 2.03125 -0.015625 Z M 2.03125 -0.015625 "/>
</g>
<g id="glyph-0-3">
<path d="M 3.71875 -3.765625 C 3.53125 -4.140625 3.25 -4.40625 2.796875 -4.40625 C 1.640625 -4.40625 0.40625 -2.9375 0.40625 -1.484375 C 0.40625 -0.546875 0.953125 0.109375 1.71875 0.109375 C 1.921875 0.109375 2.421875 0.0625 3.015625 -0.640625 C 3.09375 -0.21875 3.453125 0.109375 3.921875 0.109375 C 4.28125 0.109375 4.5 -0.125 4.671875 -0.4375 C 4.828125 -0.796875 4.96875 -1.40625 4.96875 -1.421875 C 4.96875 -1.53125 4.875 -1.53125 4.84375 -1.53125 C 4.75 -1.53125 4.734375 -1.484375 4.703125 -1.34375 C 4.53125 -0.703125 4.359375 -0.109375 3.953125 -0.109375 C 3.671875 -0.109375 3.65625 -0.375 3.65625 -0.5625 C 3.65625 -0.78125 3.671875 -0.875 3.78125 -1.3125 C 3.890625 -1.71875 3.90625 -1.828125 4 -2.203125 L 4.359375 -3.59375 C 4.421875 -3.875 4.421875 -3.890625 4.421875 -3.9375 C 4.421875 -4.109375 4.3125 -4.203125 4.140625 -4.203125 C 3.890625 -4.203125 3.75 -3.984375 3.71875 -3.765625 Z M 3.078125 -1.1875 C 3.015625 -1 3.015625 -0.984375 2.875 -0.8125 C 2.4375 -0.265625 2.03125 -0.109375 1.75 -0.109375 C 1.25 -0.109375 1.109375 -0.65625 1.109375 -1.046875 C 1.109375 -1.546875 1.421875 -2.765625 1.65625 -3.234375 C 1.96875 -3.8125 2.40625 -4.1875 2.8125 -4.1875 C 3.453125 -4.1875 3.59375 -3.375 3.59375 -3.3125 C 3.59375 -3.25 3.578125 -3.1875 3.5625 -3.140625 Z M 3.078125 -1.1875 "/>
</g>
<g id="glyph-0-4">
<path d="M 2.375 -6.8125 C 2.375 -6.8125 2.375 -6.921875 2.25 -6.921875 C 2.03125 -6.921875 1.296875 -6.84375 1.03125 -6.8125 C 0.953125 -6.8125 0.84375 -6.796875 0.84375 -6.625 C 0.84375 -6.5 0.9375 -6.5 1.09375 -6.5 C 1.5625 -6.5 1.578125 -6.4375 1.578125 -6.328125 C 1.578125 -6.265625 1.5 -5.921875 1.453125 -5.71875 L 0.625 -2.46875 C 0.515625 -1.96875 0.46875 -1.796875 0.46875 -1.453125 C 0.46875 -0.515625 1 0.109375 1.734375 0.109375 C 2.90625 0.109375 4.140625 -1.375 4.140625 -2.8125 C 4.140625 -3.71875 3.609375 -4.40625 2.8125 -4.40625 C 2.359375 -4.40625 1.9375 -4.109375 1.640625 -3.8125 Z M 1.453125 -3.046875 C 1.5 -3.265625 1.5 -3.28125 1.59375 -3.390625 C 2.078125 -4.03125 2.53125 -4.1875 2.796875 -4.1875 C 3.15625 -4.1875 3.421875 -3.890625 3.421875 -3.25 C 3.421875 -2.65625 3.09375 -1.515625 2.90625 -1.140625 C 2.578125 -0.46875 2.125 -0.109375 1.734375 -0.109375 C 1.390625 -0.109375 1.0625 -0.375 1.0625 -1.109375 C 1.0625 -1.3125 1.0625 -1.5 1.21875 -2.125 Z M 1.453125 -3.046875 "/>
</g>
<g id="glyph-1-0">
<path d="M 7.1875 -3.375 C 7.1875 -5.40625 5.6875 -7.03125 3.875 -7.03125 C 2.078125 -7.03125 0.5625 -5.4375 0.5625 -3.375 C 0.5625 -1.328125 2.09375 0.21875 3.875 0.21875 C 5.6875 0.21875 7.1875 -1.359375 7.1875 -3.375 Z M 6.15625 -3.515625 C 6.15625 -0.875 4.796875 -0.046875 3.875 -0.046875 C 2.921875 -0.046875 1.578125 -0.921875 1.578125 -3.515625 C 1.578125 -6.09375 3.046875 -6.78125 3.875 -6.78125 C 4.734375 -6.78125 6.15625 -6.078125 6.15625 -3.515625 Z M 6.15625 -3.515625 "/>
</g>
<g id="glyph-1-1">
<path d="M 6.21875 -4.953125 C 6.21875 -5.9375 5.234375 -6.8125 3.875 -6.8125 L 0.34375 -6.8125 L 0.34375 -6.5 L 0.59375 -6.5 C 1.359375 -6.5 1.375 -6.390625 1.375 -6.03125 L 1.375 -0.78125 C 1.375 -0.421875 1.359375 -0.3125 0.59375 -0.3125 L 0.34375 -0.3125 L 0.34375 0 C 0.703125 -0.03125 1.4375 -0.03125 1.8125 -0.03125 C 2.1875 -0.03125 2.9375 -0.03125 3.296875 0 L 3.296875 -0.3125 L 3.046875 -0.3125 C 2.28125 -0.3125 2.265625 -0.421875 2.265625 -0.78125 L 2.265625 -3.15625 L 3.953125 -3.15625 C 5.140625 -3.15625 6.21875 -3.953125 6.21875 -4.953125 Z M 5.1875 -4.953125 C 5.1875 -4.484375 5.1875 -3.40625 3.609375 -3.40625 L 2.234375 -3.40625 L 2.234375 -6.09375 C 2.234375 -6.4375 2.25 -6.5 2.71875 -6.5 L 3.609375 -6.5 C 5.1875 -6.5 5.1875 -5.4375 5.1875 -4.953125 Z M 5.1875 -4.953125 "/>
</g>
<g id="glyph-1-2">
<path d="M 6.828125 -4.5 L 6.640625 -6.75 L 0.546875 -6.75 L 0.359375 -4.5 L 0.609375 -4.5 C 0.75 -6.109375 0.890625 -6.4375 2.40625 -6.4375 C 2.578125 -6.4375 2.84375 -6.4375 2.9375 -6.421875 C 3.15625 -6.375 3.15625 -6.265625 3.15625 -6.046875 L 3.15625 -0.78125 C 3.15625 -0.453125 3.15625 -0.3125 2.109375 -0.3125 L 1.703125 -0.3125 L 1.703125 0 C 2.109375 -0.03125 3.125 -0.03125 3.59375 -0.03125 C 4.046875 -0.03125 5.078125 -0.03125 5.484375 0 L 5.484375 -0.3125 L 5.078125 -0.3125 C 4.03125 -0.3125 4.03125 -0.453125 4.03125 -0.78125 L 4.03125 -6.046875 C 4.03125 -6.234375 4.03125 -6.375 4.21875 -6.421875 C 4.328125 -6.4375 4.59375 -6.4375 4.78125 -6.4375 C 6.296875 -6.4375 6.4375 -6.109375 6.578125 -4.5 Z M 6.828125 -4.5 "/>
</g>
<g id="glyph-1-3">
<path d="M 7.140625 -6.5 L 7.140625 -6.8125 L 5.96875 -6.78125 L 4.8125 -6.8125 L 4.8125 -6.5 C 5.828125 -6.5 5.828125 -6.03125 5.828125 -5.765625 L 5.828125 -1.5 L 2.3125 -6.671875 C 2.21875 -6.796875 2.21875 -6.8125 2.03125 -6.8125 L 0.328125 -6.8125 L 0.328125 -6.5 L 0.625 -6.5 C 0.765625 -6.5 0.96875 -6.484375 1.109375 -6.484375 C 1.34375 -6.453125 1.359375 -6.4375 1.359375 -6.25 L 1.359375 -1.046875 C 1.359375 -0.78125 1.359375 -0.3125 0.328125 -0.3125 L 0.328125 0 L 1.5 -0.03125 L 2.65625 0 L 2.65625 -0.3125 C 1.640625 -0.3125 1.640625 -0.78125 1.640625 -1.046875 L 1.640625 -6.234375 C 1.6875 -6.1875 1.6875 -6.171875 1.734375 -6.109375 L 5.796875 -0.125 C 5.890625 -0.015625 5.90625 0 5.96875 0 C 6.109375 0 6.109375 -0.0625 6.109375 -0.265625 L 6.109375 -5.765625 C 6.109375 -6.03125 6.109375 -6.5 7.140625 -6.5 Z M 7.140625 -6.5 "/>
</g>
<g id="glyph-2-0">
<path d="M 4.484375 -4.484375 C 4.441406 -4.453125 4.382812 -4.398438 4.3125 -4.328125 C 4.238281 -4.253906 4.1875 -4.203125 4.15625 -4.171875 C 4 -4.023438 3.828125 -3.875 3.640625 -3.71875 C 3.453125 -3.5625 3.269531 -3.414062 3.09375 -3.28125 C 2.914062 -3.144531 2.722656 -3.007812 2.515625 -2.875 C 2.316406 -2.75 2.113281 -2.648438 1.90625 -2.578125 C 1.625 -2.441406 1.460938 -2.375 1.421875 -2.375 C 1.378906 -2.375 1.359375 -2.398438 1.359375 -2.453125 C 1.359375 -2.492188 1.390625 -2.53125 1.453125 -2.5625 L 2.25 -3.15625 C 2.800781 -3.5625 3.238281 -3.945312 3.5625 -4.3125 C 3.707031 -4.457031 3.960938 -4.742188 4.328125 -5.171875 C 4.703125 -5.609375 4.890625 -5.890625 4.890625 -6.015625 C 4.890625 -6.066406 4.832031 -6.09375 4.71875 -6.09375 C 4.03125 -6.09375 3.554688 -6.066406 3.296875 -6.015625 C 3.253906 -6.003906 3.171875 -5.984375 3.046875 -5.953125 C 2.921875 -5.921875 2.820312 -5.90625 2.75 -5.90625 C 2.625 -5.90625 2.425781 -5.957031 2.15625 -6.0625 C 1.882812 -6.175781 1.75 -6.285156 1.75 -6.390625 C 1.75 -6.429688 1.796875 -6.453125 1.890625 -6.453125 C 2.054688 -6.453125 2.296875 -6.441406 2.609375 -6.421875 C 2.921875 -6.410156 3.15625 -6.40625 3.3125 -6.40625 C 4.082031 -6.40625 4.585938 -6.429688 4.828125 -6.484375 C 5.054688 -6.535156 5.222656 -6.5625 5.328125 -6.5625 C 5.765625 -6.5625 5.984375 -6.5 5.984375 -6.375 C 5.984375 -6.300781 5.875 -6.117188 5.65625 -5.828125 C 5.445312 -5.546875 5.253906 -5.304688 5.078125 -5.109375 C 4.910156 -4.910156 4.78125 -4.765625 4.6875 -4.671875 C 4.707031 -4.648438 4.753906 -4.597656 4.828125 -4.515625 C 4.898438 -4.429688 4.96875 -4.351562 5.03125 -4.28125 C 5.101562 -4.21875 5.15625 -4.175781 5.1875 -4.15625 L 5.71875 -3.796875 C 5.8125 -3.734375 5.90625 -3.601562 6 -3.40625 C 6.101562 -3.207031 6.15625 -3.046875 6.15625 -2.921875 C 6.15625 -2.867188 6.132812 -2.820312 6.09375 -2.78125 C 6.0625 -2.738281 6.019531 -2.71875 5.96875 -2.71875 C 5.875 -2.71875 5.796875 -2.757812 5.734375 -2.84375 L 5 -3.78125 C 4.695312 -4.15625 4.523438 -4.390625 4.484375 -4.484375 Z M 7.484375 -1.234375 L 7.484375 -1.453125 C 7.484375 -1.703125 7.460938 -1.851562 7.421875 -1.90625 C 7.390625 -1.96875 7.269531 -2.054688 7.0625 -2.171875 C 6.851562 -2.296875 6.75 -2.382812 6.75 -2.4375 C 6.75 -2.507812 6.847656 -2.546875 7.046875 -2.546875 C 7.140625 -2.546875 7.269531 -2.523438 7.4375 -2.484375 C 7.613281 -2.453125 7.78125 -2.394531 7.9375 -2.3125 C 8.09375 -2.238281 8.164062 -2.15625 8.15625 -2.0625 C 8.125 -1.726562 8.109375 -1.207031 8.109375 -0.5 C 8.117188 0.195312 8.09375 0.695312 8.03125 1 C 7.976562 1.300781 7.859375 1.453125 7.671875 1.453125 C 7.546875 1.453125 7.484375 1.238281 7.484375 0.8125 C 5.703125 0.8125 4.796875 0.828125 4.765625 0.859375 C 4.753906 0.867188 4.734375 0.925781 4.703125 1.03125 C 4.671875 1.144531 4.625 1.25 4.5625 1.34375 C 4.507812 1.445312 4.441406 1.5 4.359375 1.5 C 4.285156 1.5 4.226562 1.429688 4.1875 1.296875 C 4.144531 1.160156 4.117188 0.988281 4.109375 0.78125 C 4.109375 0.570312 4.109375 0.375 4.109375 0.1875 C 4.109375 0 4.113281 -0.179688 4.125 -0.359375 L 4.140625 -0.625 C 4.140625 -0.695312 4.132812 -0.804688 4.125 -0.953125 C 4.125 -1.097656 4.125 -1.210938 4.125 -1.296875 C 4.125 -1.484375 4.0625 -1.625 3.9375 -1.71875 C 3.820312 -1.8125 3.703125 -1.875 3.578125 -1.90625 C 3.453125 -1.945312 3.390625 -1.992188 3.390625 -2.046875 C 3.390625 -2.140625 3.492188 -2.1875 3.703125 -2.1875 C 4.421875 -2.1875 4.78125 -2.070312 4.78125 -1.84375 C 4.78125 -1.769531 4.773438 -1.660156 4.765625 -1.515625 C 4.765625 -1.378906 4.765625 -1.273438 4.765625 -1.203125 Z M 7.484375 -0.875 L 4.765625 -0.84375 L 4.765625 0.484375 L 7.484375 0.453125 Z M 7.578125 -4.78125 L 7.578125 -6.34375 C 7.578125 -6.363281 7.570312 -6.394531 7.5625 -6.4375 C 7.5625 -6.488281 7.5625 -6.53125 7.5625 -6.5625 C 7.5625 -6.726562 7.46875 -6.878906 7.28125 -7.015625 C 7.09375 -7.160156 6.90625 -7.273438 6.71875 -7.359375 C 6.53125 -7.453125 6.4375 -7.53125 6.4375 -7.59375 C 6.4375 -7.675781 6.535156 -7.71875 6.734375 -7.71875 C 6.898438 -7.71875 7.175781 -7.660156 7.5625 -7.546875 C 7.945312 -7.441406 8.171875 -7.34375 8.234375 -7.25 C 8.265625 -7.195312 8.28125 -7.144531 8.28125 -7.09375 C 8.238281 -6.789062 8.21875 -6.53125 8.21875 -6.3125 L 8.21875 -4 C 8.21875 -3.78125 8.175781 -3.488281 8.09375 -3.125 C 8.019531 -2.757812 7.914062 -2.59375 7.78125 -2.625 L 7.71875 -2.65625 C 7.625 -2.757812 7.578125 -3.351562 7.578125 -4.4375 C 7.203125 -4.425781 6.773438 -4.375 6.296875 -4.28125 C 6.210938 -4.269531 6.050781 -4.328125 5.8125 -4.453125 C 5.570312 -4.578125 5.453125 -4.675781 5.453125 -4.75 C 5.453125 -4.800781 5.488281 -4.828125 5.5625 -4.828125 C 5.644531 -4.828125 5.769531 -4.8125 5.9375 -4.78125 C 6.101562 -4.757812 6.222656 -4.75 6.296875 -4.75 L 6.84375 -4.75 C 6.914062 -4.75 6.992188 -4.75 7.078125 -4.75 C 7.160156 -4.757812 7.25 -4.765625 7.34375 -4.765625 C 7.445312 -4.773438 7.523438 -4.78125 7.578125 -4.78125 Z M 7.578125 -4.78125 "/>
</g>
<g id="glyph-2-1">
<path d="M 3.890625 -4.359375 C 3.710938 -4.140625 3.457031 -3.867188 3.125 -3.546875 C 2.789062 -3.234375 2.382812 -2.898438 1.90625 -2.546875 C 1.4375 -2.203125 1.070312 -2.03125 0.8125 -2.03125 L 0.78125 -2.03125 L 0.75 -2.046875 L 0.75 -2.078125 C 0.75 -2.128906 0.832031 -2.203125 1 -2.296875 C 1.425781 -2.617188 1.734375 -2.878906 1.921875 -3.078125 C 3.203125 -4.398438 3.84375 -5.304688 3.84375 -5.796875 C 3.84375 -5.898438 3.757812 -6.023438 3.59375 -6.171875 C 3.4375 -6.316406 3.359375 -6.40625 3.359375 -6.4375 C 3.359375 -6.519531 3.40625 -6.5625 3.5 -6.5625 C 3.65625 -6.5625 3.90625 -6.476562 4.25 -6.3125 C 4.601562 -6.144531 4.78125 -6 4.78125 -5.875 C 4.78125 -5.769531 4.660156 -5.535156 4.421875 -5.171875 C 4.191406 -4.804688 4.078125 -4.613281 4.078125 -4.59375 C 4.078125 -4.570312 4.117188 -4.515625 4.203125 -4.421875 C 4.441406 -4.140625 4.570312 -3.992188 4.59375 -3.984375 L 5.25 -3.46875 C 5.375 -3.363281 5.5 -3.1875 5.625 -2.9375 C 5.75 -2.695312 5.8125 -2.492188 5.8125 -2.328125 C 5.8125 -2.160156 5.742188 -2.078125 5.609375 -2.078125 C 5.523438 -2.078125 5.441406 -2.117188 5.359375 -2.203125 C 5.265625 -2.296875 5.007812 -2.648438 4.59375 -3.265625 C 4.175781 -3.890625 3.941406 -4.253906 3.890625 -4.359375 Z M 3.625 -1.328125 C 4.21875 -1.328125 4.515625 -1.222656 4.515625 -1.015625 C 4.515625 -0.972656 4.503906 -0.910156 4.484375 -0.828125 C 4.472656 -0.742188 4.46875 -0.679688 4.46875 -0.640625 L 4.484375 -0.171875 C 4.484375 -0.0664062 4.484375 0.0234375 4.484375 0.109375 C 4.484375 0.191406 4.488281 0.265625 4.5 0.328125 C 4.519531 0.390625 4.546875 0.441406 4.578125 0.484375 C 4.617188 0.535156 4.675781 0.570312 4.75 0.59375 C 4.832031 0.625 4.929688 0.640625 5.046875 0.640625 L 6.953125 0.640625 C 7.078125 0.640625 7.265625 0.601562 7.515625 0.53125 C 7.765625 0.46875 7.960938 0.4375 8.109375 0.4375 C 8.648438 0.4375 8.921875 0.539062 8.921875 0.75 C 8.921875 0.9375 8.78125 1.019531 8.5 1 L 4.8125 1 C 4.550781 1 4.347656 0.957031 4.203125 0.875 C 4.054688 0.800781 3.957031 0.695312 3.90625 0.5625 C 3.863281 0.4375 3.835938 0.28125 3.828125 0.09375 C 3.816406 -0.0820312 3.816406 -0.28125 3.828125 -0.5 C 3.828125 -0.65625 3.816406 -0.75 3.796875 -0.78125 C 3.753906 -0.84375 3.613281 -0.910156 3.375 -0.984375 C 3.132812 -1.066406 3.015625 -1.132812 3.015625 -1.1875 C 3.015625 -1.28125 3.21875 -1.328125 3.625 -1.328125 Z M 7.578125 -4.5625 L 7.578125 -6.34375 C 7.578125 -6.363281 7.570312 -6.394531 7.5625 -6.4375 C 7.5625 -6.488281 7.5625 -6.53125 7.5625 -6.5625 C 7.5625 -6.726562 7.46875 -6.878906 7.28125 -7.015625 C 7.09375 -7.160156 6.90625 -7.28125 6.71875 -7.375 C 6.53125 -7.46875 6.4375 -7.539062 6.4375 -7.59375 C 6.4375 -7.675781 6.539062 -7.71875 6.75 -7.71875 C 6.9375 -7.71875 7.210938 -7.660156 7.578125 -7.546875 C 7.953125 -7.441406 8.175781 -7.332031 8.25 -7.21875 C 8.28125 -7.164062 8.289062 -7.101562 8.28125 -7.03125 C 8.238281 -6.707031 8.21875 -6.507812 8.21875 -6.4375 L 8.21875 -2.421875 C 8.21875 -2.128906 8.179688 -1.78125 8.109375 -1.375 C 8.035156 -0.976562 7.925781 -0.78125 7.78125 -0.78125 C 7.65625 -0.78125 7.59375 -1.097656 7.59375 -1.734375 L 7.578125 -4.234375 L 7.421875 -4.234375 C 7.066406 -4.234375 6.8125 -4.210938 6.65625 -4.171875 C 6.414062 -4.109375 6.28125 -4.078125 6.25 -4.078125 C 6.132812 -4.078125 5.960938 -4.128906 5.734375 -4.234375 C 5.503906 -4.347656 5.390625 -4.457031 5.390625 -4.5625 C 5.390625 -4.59375 5.460938 -4.609375 5.609375 -4.609375 C 6.128906 -4.578125 6.398438 -4.5625 6.421875 -4.5625 C 6.554688 -4.5625 6.75 -4.5625 7 -4.5625 C 7.25 -4.5625 7.441406 -4.5625 7.578125 -4.5625 Z M 7.578125 -4.5625 "/>
</g>
<g id="glyph-2-2">
<path d="M 5.046875 -5.34375 L 5.046875 -5.640625 C 5.046875 -5.867188 5 -6.050781 4.90625 -6.1875 C 4.8125 -6.332031 4.707031 -6.421875 4.59375 -6.453125 C 4.476562 -6.492188 4.367188 -6.539062 4.265625 -6.59375 C 4.171875 -6.644531 4.125 -6.703125 4.125 -6.765625 C 4.125 -6.835938 4.234375 -6.875 4.453125 -6.875 C 4.617188 -6.875 4.867188 -6.816406 5.203125 -6.703125 C 5.546875 -6.597656 5.71875 -6.476562 5.71875 -6.34375 C 5.71875 -6.289062 5.710938 -6.203125 5.703125 -6.078125 C 5.691406 -5.960938 5.6875 -5.878906 5.6875 -5.828125 C 5.6875 -5.710938 5.691406 -5.539062 5.703125 -5.3125 C 5.710938 -5.09375 5.71875 -4.925781 5.71875 -4.8125 C 5.71875 -3.425781 5.554688 -2.734375 5.234375 -2.734375 C 5.109375 -2.734375 5.046875 -2.890625 5.046875 -3.203125 C 5.046875 -3.265625 5.023438 -3.300781 4.984375 -3.3125 C 4.941406 -3.320312 4.890625 -3.320312 4.828125 -3.3125 C 4.597656 -3.3125 4.25 -3.300781 3.78125 -3.28125 C 3.320312 -3.269531 2.972656 -3.265625 2.734375 -3.265625 C 2.703125 -3.265625 2.648438 -3.164062 2.578125 -2.96875 C 2.515625 -2.78125 2.421875 -2.6875 2.296875 -2.6875 C 2.117188 -2.6875 2.03125 -3.039062 2.03125 -3.75 L 2.03125 -5.390625 C 2.03125 -5.546875 1.957031 -5.6875 1.8125 -5.8125 C 1.664062 -5.9375 1.519531 -6.035156 1.375 -6.109375 C 1.226562 -6.191406 1.15625 -6.253906 1.15625 -6.296875 C 1.15625 -6.367188 1.28125 -6.40625 1.53125 -6.40625 C 1.695312 -6.40625 1.9375 -6.359375 2.25 -6.265625 C 2.5625 -6.171875 2.710938 -6.0625 2.703125 -5.9375 C 2.679688 -5.769531 2.671875 -5.679688 2.671875 -5.671875 C 2.671875 -5.628906 2.671875 -5.566406 2.671875 -5.484375 C 2.679688 -5.410156 2.6875 -5.351562 2.6875 -5.3125 Z M 5.046875 -4.984375 L 2.6875 -4.953125 L 2.6875 -3.625 L 5.046875 -3.671875 Z M 7.484375 -1.234375 L 7.484375 -1.453125 C 7.484375 -1.703125 7.460938 -1.851562 7.421875 -1.90625 C 7.390625 -1.96875 7.269531 -2.054688 7.0625 -2.171875 C 6.851562 -2.296875 6.75 -2.382812 6.75 -2.4375 C 6.75 -2.507812 6.847656 -2.546875 7.046875 -2.546875 C 7.140625 -2.546875 7.269531 -2.523438 7.4375 -2.484375 C 7.613281 -2.453125 7.78125 -2.394531 7.9375 -2.3125 C 8.09375 -2.238281 8.164062 -2.15625 8.15625 -2.0625 C 8.125 -1.726562 8.109375 -1.207031 8.109375 -0.5 C 8.117188 0.195312 8.09375 0.695312 8.03125 1 C 7.976562 1.300781 7.859375 1.453125 7.671875 1.453125 C 7.546875 1.453125 7.484375 1.238281 7.484375 0.8125 C 5.703125 0.8125 4.796875 0.828125 4.765625 0.859375 C 4.753906 0.867188 4.734375 0.925781 4.703125 1.03125 C 4.671875 1.144531 4.625 1.25 4.5625 1.34375 C 4.507812 1.445312 4.441406 1.5 4.359375 1.5 C 4.285156 1.5 4.226562 1.429688 4.1875 1.296875 C 4.144531 1.160156 4.117188 0.988281 4.109375 0.78125 C 4.109375 0.570312 4.109375 0.375 4.109375 0.1875 C 4.109375 0 4.113281 -0.179688 4.125 -0.359375 L 4.140625 -0.625 C 4.140625 -0.695312 4.132812 -0.804688 4.125 -0.953125 C 4.125 -1.097656 4.125 -1.210938 4.125 -1.296875 C 4.125 -1.484375 4.0625 -1.625 3.9375 -1.71875 C 3.820312 -1.8125 3.703125 -1.875 3.578125 -1.90625 C 3.453125 -1.945312 3.390625 -1.992188 3.390625 -2.046875 C 3.390625 -2.140625 3.492188 -2.1875 3.703125 -2.1875 C 4.421875 -2.1875 4.78125 -2.070312 4.78125 -1.84375 C 4.78125 -1.769531 4.773438 -1.660156 4.765625 -1.515625 C 4.765625 -1.378906 4.765625 -1.273438 4.765625 -1.203125 Z M 7.484375 -0.875 L 4.765625 -0.84375 L 4.765625 0.484375 L 7.484375 0.453125 Z M 7.578125 -4.96875 L 7.578125 -6.265625 C 7.578125 -6.296875 7.570312 -6.347656 7.5625 -6.421875 C 7.5625 -6.503906 7.5625 -6.5625 7.5625 -6.59375 C 7.5625 -6.757812 7.46875 -6.90625 7.28125 -7.03125 C 7.09375 -7.164062 6.90625 -7.273438 6.71875 -7.359375 C 6.53125 -7.453125 6.4375 -7.53125 6.4375 -7.59375 C 6.4375 -7.675781 6.539062 -7.71875 6.75 -7.71875 C 6.925781 -7.71875 7.191406 -7.664062 7.546875 -7.5625 C 7.898438 -7.46875 8.117188 -7.363281 8.203125 -7.25 C 8.253906 -7.195312 8.273438 -7.125 8.265625 -7.03125 C 8.234375 -6.613281 8.21875 -5.601562 8.21875 -4 C 8.21875 -3.925781 8.207031 -3.816406 8.1875 -3.671875 C 8.175781 -3.535156 8.15625 -3.378906 8.125 -3.203125 C 8.09375 -3.035156 8.046875 -2.894531 7.984375 -2.78125 C 7.921875 -2.664062 7.851562 -2.613281 7.78125 -2.625 L 7.71875 -2.65625 C 7.625 -2.738281 7.578125 -3.398438 7.578125 -4.640625 L 6.671875 -4.609375 C 6.617188 -4.609375 6.535156 -4.582031 6.421875 -4.53125 C 6.316406 -4.488281 6.238281 -4.46875 6.1875 -4.46875 C 6.070312 -4.46875 5.898438 -4.523438 5.671875 -4.640625 C 5.453125 -4.753906 5.34375 -4.859375 5.34375 -4.953125 C 5.34375 -4.992188 5.378906 -5.015625 5.453125 -5.015625 C 5.554688 -5.015625 5.707031 -5 5.90625 -4.96875 C 6.113281 -4.945312 6.269531 -4.9375 6.375 -4.9375 Z M 7.578125 -4.96875 "/>
</g>
<g id="glyph-3-0">
<path d="M 3.296875 2.390625 C 3.296875 2.359375 3.296875 2.34375 3.125 2.171875 C 1.890625 0.921875 1.5625 -0.96875 1.5625 -2.5 C 1.5625 -4.234375 1.9375 -5.96875 3.171875 -7.203125 C 3.296875 -7.328125 3.296875 -7.34375 3.296875 -7.375 C 3.296875 -7.453125 3.265625 -7.484375 3.203125 -7.484375 C 3.09375 -7.484375 2.203125 -6.796875 1.609375 -5.53125 C 1.109375 -4.4375 0.984375 -3.328125 0.984375 -2.5 C 0.984375 -1.71875 1.09375 -0.515625 1.640625 0.625 C 2.25 1.84375 3.09375 2.5 3.203125 2.5 C 3.265625 2.5 3.296875 2.46875 3.296875 2.390625 Z M 3.296875 2.390625 "/>
</g>
<g id="glyph-3-1">
<path d="M 2.875 -2.5 C 2.875 -3.265625 2.765625 -4.46875 2.21875 -5.609375 C 1.625 -6.828125 0.765625 -7.484375 0.671875 -7.484375 C 0.609375 -7.484375 0.5625 -7.4375 0.5625 -7.375 C 0.5625 -7.34375 0.5625 -7.328125 0.75 -7.140625 C 1.734375 -6.15625 2.296875 -4.578125 2.296875 -2.5 C 2.296875 -0.78125 1.9375 0.96875 0.703125 2.21875 C 0.5625 2.34375 0.5625 2.359375 0.5625 2.390625 C 0.5625 2.453125 0.609375 2.5 0.671875 2.5 C 0.765625 2.5 1.671875 1.8125 2.25 0.546875 C 2.765625 -0.546875 2.875 -1.65625 2.875 -2.5 Z M 2.875 -2.5 "/>
</g>
<g id="glyph-3-2">
<path d="M 4.078125 -2.296875 L 6.859375 -2.296875 C 7 -2.296875 7.1875 -2.296875 7.1875 -2.5 C 7.1875 -2.6875 7 -2.6875 6.859375 -2.6875 L 4.078125 -2.6875 L 4.078125 -5.484375 C 4.078125 -5.625 4.078125 -5.8125 3.875 -5.8125 C 3.671875 -5.8125 3.671875 -5.625 3.671875 -5.484375 L 3.671875 -2.6875 L 0.890625 -2.6875 C 0.75 -2.6875 0.5625 -2.6875 0.5625 -2.5 C 0.5625 -2.296875 0.75 -2.296875 0.890625 -2.296875 L 3.671875 -2.296875 L 3.671875 0.5 C 3.671875 0.640625 3.671875 0.828125 3.875 0.828125 C 4.078125 0.828125 4.078125 0.640625 4.078125 0.5 Z M 4.078125 -2.296875 "/>
</g>
<g id="glyph-3-3">
<path d="M 6.84375 -3.265625 C 7 -3.265625 7.1875 -3.265625 7.1875 -3.453125 C 7.1875 -3.65625 7 -3.65625 6.859375 -3.65625 L 0.890625 -3.65625 C 0.75 -3.65625 0.5625 -3.65625 0.5625 -3.453125 C 0.5625 -3.265625 0.75 -3.265625 0.890625 -3.265625 Z M 6.859375 -1.328125 C 7 -1.328125 7.1875 -1.328125 7.1875 -1.53125 C 7.1875 -1.71875 7 -1.71875 6.84375 -1.71875 L 0.890625 -1.71875 C 0.75 -1.71875 0.5625 -1.71875 0.5625 -1.53125 C 0.5625 -1.328125 0.75 -1.328125 0.890625 -1.328125 Z M 6.859375 -1.328125 "/>
</g>
<g id="glyph-3-4">
<path d="M 2.9375 -6.375 C 2.9375 -6.625 2.9375 -6.640625 2.703125 -6.640625 C 2.078125 -6 1.203125 -6 0.890625 -6 L 0.890625 -5.6875 C 1.09375 -5.6875 1.671875 -5.6875 2.1875 -5.953125 L 2.1875 -0.78125 C 2.1875 -0.421875 2.15625 -0.3125 1.265625 -0.3125 L 0.953125 -0.3125 L 0.953125 0 C 1.296875 -0.03125 2.15625 -0.03125 2.5625 -0.03125 C 2.953125 -0.03125 3.828125 -0.03125 4.171875 0 L 4.171875 -0.3125 L 3.859375 -0.3125 C 2.953125 -0.3125 2.9375 -0.421875 2.9375 -0.78125 Z M 2.9375 -6.375 "/>
</g>
<g id="glyph-4-0">
<path d="M 2.328125 -4.4375 C 2.328125 -4.625 2.328125 -4.625 2.125 -4.625 C 1.671875 -4.1875 1.046875 -4.1875 0.765625 -4.1875 L 0.765625 -3.9375 C 0.921875 -3.9375 1.390625 -3.9375 1.765625 -4.125 L 1.765625 -0.578125 C 1.765625 -0.34375 1.765625 -0.25 1.078125 -0.25 L 0.8125 -0.25 L 0.8125 0 C 0.9375 0 1.796875 -0.03125 2.046875 -0.03125 C 2.265625 -0.03125 3.140625 0 3.296875 0 L 3.296875 -0.25 L 3.03125 -0.25 C 2.328125 -0.25 2.328125 -0.34375 2.328125 -0.578125 Z M 2.328125 -4.4375 "/>
</g>
<g id="glyph-4-1">
<path d="M 3.515625 -1.265625 L 3.28125 -1.265625 C 3.265625 -1.109375 3.1875 -0.703125 3.09375 -0.640625 C 3.046875 -0.59375 2.515625 -0.59375 2.40625 -0.59375 L 1.125 -0.59375 C 1.859375 -1.234375 2.109375 -1.4375 2.515625 -1.765625 C 3.03125 -2.171875 3.515625 -2.609375 3.515625 -3.265625 C 3.515625 -4.109375 2.78125 -4.625 1.890625 -4.625 C 1.03125 -4.625 0.4375 -4.015625 0.4375 -3.375 C 0.4375 -3.03125 0.734375 -2.984375 0.8125 -2.984375 C 0.96875 -2.984375 1.171875 -3.109375 1.171875 -3.359375 C 1.171875 -3.484375 1.125 -3.734375 0.765625 -3.734375 C 0.984375 -4.21875 1.453125 -4.375 1.78125 -4.375 C 2.484375 -4.375 2.84375 -3.828125 2.84375 -3.265625 C 2.84375 -2.65625 2.40625 -2.1875 2.1875 -1.9375 L 0.515625 -0.265625 C 0.4375 -0.203125 0.4375 -0.1875 0.4375 0 L 3.3125 0 Z M 3.515625 -1.265625 "/>
</g>
</g>
</defs>
<path fill="none" stroke-width="0.89664" stroke-linecap="butt" stroke-linejoin="miter" stroke="rgb(0%, 0%, 0%)" stroke-opacity="1" stroke-miterlimit="10" d="M -136.914312 -0.00178125 L 160.964594 -0.00178125 " transform="matrix(1, 0, 0, -1, 142.344, 107.799)"/>
<path fill-rule="nonzero" fill="rgb(0%, 0%, 0%)" fill-opacity="1" d="M 306.046875 107.800781 L 301.664062 105.605469 L 303.308594 107.800781 L 301.664062 109.992188 "/>
<g fill="rgb(0%, 0%, 0%)" fill-opacity="1">
<use xlink:href="#glyph-0-0" x="303.2" y="115.857"/>
</g>
<path fill="none" stroke-width="0.89664" stroke-linecap="butt" stroke-linejoin="miter" stroke="rgb(0%, 0%, 0%)" stroke-opacity="1" stroke-miterlimit="10" d="M -0.00025 -89.290844 L -0.00025 92.506031 " transform="matrix(1, 0, 0, -1, 142.344, 107.799)"/>
<path fill-rule="nonzero" fill="rgb(0%, 0%, 0%)" fill-opacity="1" d="M 142.34375 12.554688 L 140.152344 16.9375 L 142.34375 15.292969 L 144.535156 16.9375 "/>
<g fill="rgb(0%, 0%, 0%)" fill-opacity="1">
<use xlink:href="#glyph-0-1" x="133.333" y="13.73"/>
</g>
<path fill="none" stroke-width="0.79701" stroke-linecap="butt" stroke-linejoin="miter" stroke="rgb(0%, 0%, 69.999695%)" stroke-opacity="1" stroke-miterlimit="10" d="M 107.152094 -0.00178125 C 107.152094 34.521656 59.179438 62.506031 -0.00025 62.506031 C -59.179937 62.506031 -107.152594 34.521656 -107.152594 -0.00178125 C -107.152594 -34.521313 -59.179937 -62.505688 -0.00025 -62.505688 C 59.179438 -62.505688 107.152094 -34.521313 107.152094 -0.00178125 Z M 107.152094 -0.00178125 " transform="matrix(1, 0, 0, -1, 142.344, 107.799)"/>
<path fill-rule="nonzero" fill="rgb(0%, 0%, 0%)" fill-opacity="1" d="M 144.035156 107.800781 C 144.035156 106.867188 143.277344 106.109375 142.34375 106.109375 C 141.410156 106.109375 140.652344 106.867188 140.652344 107.800781 C 140.652344 108.734375 141.410156 109.488281 142.34375 109.488281 C 143.277344 109.488281 144.035156 108.734375 144.035156 107.800781 Z M 144.035156 107.800781 "/>
<g fill="rgb(0%, 0%, 0%)" fill-opacity="1">
<use xlink:href="#glyph-1-0" x="129.311" y="120.104"/>
</g>
<path fill="none" stroke-width="0.79701" stroke-linecap="butt" stroke-linejoin="miter" stroke="rgb(84.999084%, 42.498779%, 0%)" stroke-opacity="1" stroke-miterlimit="10" d="M 148.855219 -9.599438 L 20.042719 86.576344 " transform="matrix(1, 0, 0, -1, 142.344, 107.799)"/>
<g fill="rgb(84.999084%, 42.498779%, 0%)" fill-opacity="1">
<use xlink:href="#glyph-2-0" x="166.106" y="16.011"/>
<use xlink:href="#glyph-2-1" x="176.0686" y="16.011"/>
</g>
<path fill="none" stroke-width="0.79701" stroke-linecap="butt" stroke-linejoin="miter" stroke="rgb(0%, 34.999084%, 34.999084%)" stroke-opacity="1" stroke-miterlimit="10" d="M 45.261469 -13.997875 L 123.636469 90.974781 " transform="matrix(1, 0, 0, -1, 142.344, 107.799)"/>
<g fill="rgb(0%, 34.999084%, 34.999084%)" fill-opacity="1">
<use xlink:href="#glyph-2-2" x="269.701" y="19.932"/>
<use xlink:href="#glyph-2-1" x="279.6636" y="19.932"/>
</g>
<path fill="none" stroke-width="0.89664" stroke-linecap="butt" stroke-linejoin="miter" stroke="rgb(0%, 0%, 0%)" stroke-opacity="1" stroke-miterlimit="10" d="M 77.24975 43.845875 L 82.616938 51.029469 L 89.800531 45.666187 " transform="matrix(1, 0, 0, -1, 142.344, 107.799)"/>
<g fill="rgb(0%, 0%, 0%)" fill-opacity="1">
<use xlink:href="#glyph-1-1" x="230.549" y="71.808"/>
</g>
<g fill="rgb(0%, 0%, 0%)" fill-opacity="1">
<use xlink:href="#glyph-3-0" x="237.333" y="71.808"/>
</g>
<g fill="rgb(0%, 0%, 0%)" fill-opacity="1">
<use xlink:href="#glyph-0-0" x="241.207" y="71.808"/>
</g>
<g fill="rgb(0%, 0%, 0%)" fill-opacity="1">
<use xlink:href="#glyph-4-0" x="246.901" y="73.302"/>
</g>
<g fill="rgb(0%, 0%, 0%)" fill-opacity="1">
<use xlink:href="#glyph-0-2" x="251.371" y="71.808"/>
</g>
<g fill="rgb(0%, 0%, 0%)" fill-opacity="1">
<use xlink:href="#glyph-0-1" x="257.448186" y="71.808"/>
</g>
<g fill="rgb(0%, 0%, 0%)" fill-opacity="1">
<use xlink:href="#glyph-4-0" x="262.343" y="73.302"/>
</g>
<g fill="rgb(0%, 0%, 0%)" fill-opacity="1">
<use xlink:href="#glyph-3-1" x="266.813" y="71.808"/>
</g>
<g fill="rgb(0%, 0%, 0%)" fill-opacity="1">
<use xlink:href="#glyph-1-2" x="274.791" y="118.312"/>
</g>
<g fill="rgb(0%, 0%, 0%)" fill-opacity="1">
<use xlink:href="#glyph-1-3" x="194.339" y="118.372"/>
</g>
<g fill="rgb(0%, 0%, 69.999695%)" fill-opacity="1">
<use xlink:href="#glyph-0-0" x="177.006" y="177.989"/>
</g>
<g fill="rgb(0%, 0%, 69.999695%)" fill-opacity="1">
<use xlink:href="#glyph-4-1" x="182.7" y="174.373"/>
</g>
<path fill="none" stroke-width="0.3985" stroke-linecap="butt" stroke-linejoin="miter" stroke="rgb(0%, 0%, 69.999695%)" stroke-opacity="1" stroke-miterlimit="10" d="M 71.540813 -33.309281 L 81.700969 -33.309281 " transform="matrix(1, 0, 0, -1, 105.467, 148.929)"/>
<g fill="rgb(0%, 0%, 69.999695%)" fill-opacity="1">
<use xlink:href="#glyph-0-3" x="177.22" y="191.563"/>
</g>
<g fill="rgb(0%, 0%, 69.999695%)" fill-opacity="1">
<use xlink:href="#glyph-4-1" x="182.486" y="188.684"/>
</g>
<g fill="rgb(0%, 0%, 69.999695%)" fill-opacity="1">
<use xlink:href="#glyph-3-2" x="190.579" y="184.729"/>
</g>
<g fill="rgb(0%, 0%, 69.999695%)" fill-opacity="1">
<use xlink:href="#glyph-0-1" x="201.737" y="177.989"/>
</g>
<g fill="rgb(0%, 0%, 69.999695%)" fill-opacity="1">
<use xlink:href="#glyph-4-1" x="206.979" y="174.373"/>
</g>
<path fill="none" stroke-width="0.3985" stroke-linecap="butt" stroke-linejoin="miter" stroke="rgb(0%, 0%, 69.999695%)" stroke-opacity="1" stroke-miterlimit="10" d="M 96.271281 -33.309281 L 105.982219 -33.309281 " transform="matrix(1, 0, 0, -1, 105.467, 148.929)"/>
<g fill="rgb(0%, 0%, 69.999695%)" fill-opacity="1">
<use xlink:href="#glyph-0-4" x="202.22" y="191.563"/>
</g>
<g fill="rgb(0%, 0%, 69.999695%)" fill-opacity="1">
<use xlink:href="#glyph-4-1" x="206.496" y="188.684"/>
</g>
<g fill="rgb(0%, 0%, 69.999695%)" fill-opacity="1">
<use xlink:href="#glyph-3-3" x="215.411" y="184.729"/>
</g>
<g fill="rgb(0%, 0%, 69.999695%)" fill-opacity="1">
<use xlink:href="#glyph-3-4" x="225.91158" y="184.729"/>
</g>
</svg>
